<?xml version="1.0" standalone="no"?><!DOCTYPE svg PUBLIC "-//W3C//DTD SVG 1.1//EN" "http://www.w3.org/Graphics/SVG/1.1/DTD/svg11.dtd"><svg t="1707317957291" class="icon" viewBox="0 0 1024 1024" version="1.1" xmlns="http://www.w3.org/2000/svg" p-id="6802" xmlns:xlink="http://www.w3.org/1999/xlink" width="200" height="200"><path d="M903.88 147.43H120.97c-30.84 0-55.92 24.99-55.92 55.92v615.14c0 30.85 25.08 55.93 55.92 55.93h782.91c30.84 0 55.92-25.08 55.92-55.93V203.35c0-30.93-25.08-55.92-55.92-55.92z m-117.61 92.09c5.07-5.07 12.06-8.21 19.75-8.21 7.69 0 14.68 3.14 19.75 8.21s8.21 12.06 8.21 19.75c0 7.69-3.14 14.68-8.21 19.75s-12.06 8.21-19.75 8.21c-15.47 0-27.96-12.5-27.96-27.96-0.01-7.69 3.14-14.68 8.21-19.75z m-111.84 0c5.06-5.07 12.06-8.21 19.75-8.21 7.69 0 14.68 3.14 19.75 8.21s8.22 12.06 8.22 19.75c0 7.69-3.15 14.68-8.22 19.75-5.06 5.07-12.06 8.21-19.75 8.21-15.47 0-27.96-12.5-27.96-27.96-0.01-7.69 3.14-14.68 8.21-19.75z m-111.85 0c5.07-5.07 12.06-8.21 19.75-8.21 7.69 0 14.68 3.14 19.75 8.21s8.21 12.06 8.21 19.75c0 7.69-3.14 14.68-8.21 19.75s-12.06 8.21-19.75 8.21c-15.47 0-27.96-12.5-27.96-27.96 0-7.69 3.14-14.68 8.21-19.75z m341.3 564.99c0 7.69-6.29 13.98-13.98 13.98H134.95c-7.69 0-13.98-6.29-13.98-13.98V378.1c0-3.84 3.14-6.99 6.99-6.99h768.92c3.84 0 6.99 3.14 6.99 6.99v426.41z" p-id="6803"></path></svg>