<?xml version="1.0" standalone="no"?><!DOCTYPE svg PUBLIC "-//W3C//DTD SVG 1.1//EN" "http://www.w3.org/Graphics/SVG/1.1/DTD/svg11.dtd"><svg t="1714359245322" class="icon" viewBox="0 0 1024 1024" version="1.1" xmlns="http://www.w3.org/2000/svg" p-id="10118" xmlns:xlink="http://www.w3.org/1999/xlink" width="200" height="200"><path d="M892.5 888c19.882 0 36 16.118 36 36s-16.118 36-36 36h-344c-19.882 0-36-16.118-36-36s16.118-36 36-36h344z m23.05-779.05c14.06 14.058 14.06 36.852 0 50.91L160.36 915.05c-14.058 14.06-36.852 14.06-50.91 0-14.06-14.058-14.06-36.852 0-50.91l755.19-755.19c14.058-14.06 36.852-14.06 50.91 0zM892.5 712c19.882 0 36 16.118 36 36s-16.118 36-36 36h-344c-19.882 0-36-16.118-36-36s16.118-36 36-36h344z m-619-616c19.882 0 36 16.118 36 36v135.999l136 0.001c19.882 0 36 16.118 36 36s-16.118 36-36 36l-136-0.001V476c0 19.882-16.118 36-36 36s-36-16.118-36-36V339.999l-136 0.001c-19.882 0-36-16.118-36-36s16.118-36 36-36l136-0.001V132c0-19.882 16.118-36 36-36z" fill="#262A30" p-id="10119"></path></svg>