<?xml version="1.0" standalone="no"?><!DOCTYPE svg PUBLIC "-//W3C//DTD SVG 1.1//EN" "http://www.w3.org/Graphics/SVG/1.1/DTD/svg11.dtd"><svg t="1714359471743" class="icon" viewBox="0 0 1024 1024" version="1.1" xmlns="http://www.w3.org/2000/svg" p-id="19898" xmlns:xlink="http://www.w3.org/1999/xlink" width="200" height="200"><path d="M397.66016 717.70112a149.46816 149.46816 0 0 1-105.96864-43.8016c-36.224-36.1472-94.8736-36.1472-131.0976 0a28.58496 28.58496 0 0 1-40.4224-40.4224c58.5728-58.40384 153.36448-58.40384 211.9424 0 36.23424 36.1216 94.85824 36.1216 131.09248 0a28.59008 28.59008 0 0 1 40.42752 40.4224 149.44256 149.44256 0 0 1-105.97376 43.8016z m0-114.35008a149.4528 149.4528 0 0 1-105.96864-43.79136c-36.224-36.15232-94.8736-36.15232-131.0976 0a28.58496 28.58496 0 0 1-40.4224-40.4224c58.5728-58.40896 153.36448-58.40896 211.9424 0 36.23424 36.1216 94.85824 36.1216 131.09248 0a28.59008 28.59008 0 0 1 40.42752 40.4224 149.4528 149.4528 0 0 1-105.97376 43.79136z m0-114.34496a149.4784 149.4784 0 0 1-105.96864-43.79136c-36.224-36.15232-94.8736-36.15232-131.0976 0a28.58496 28.58496 0 0 1-40.4224-40.4224c58.5728-58.40384 153.36448-58.40384 211.9424 0 36.23424 36.1216 94.85824 36.1216 131.09248 0a28.59008 28.59008 0 0 1 40.42752 40.4224 149.43232 149.43232 0 0 1-105.97376 43.79136zM774.4 578.47808V393.6256a32.64 32.64 0 0 0-65.28 0v184.85248c-27.04384 12.3904-45.87008 39.63904-45.87008 71.33184 0 43.36128 35.1488 78.51008 78.49984 78.51008 43.36128 0 78.51008-35.1488 78.51008-78.51008 0-31.68768-18.82112-58.9312-45.85984-71.33184z m-52.82816-169.30304h24.74496v8.96h-24.74496v-8.96z m0 20.79744h24.74496v8.96h-24.74496v-8.96z m0 20.80256h24.74496v8.96h-24.74496v-8.96z m20.18816 223.78496a24.75008 24.75008 0 0 1-24.75008-24.75008c0-9.73824 5.67808-18.08896 13.87008-22.1184V503.04H752.64v124.65152c8.18176 4.03968 13.85984 12.38016 13.85984 22.1184a24.74496 24.74496 0 0 1-24.73984 24.75008z" fill="#3366CC" p-id="19899"></path><path d="M916.1472 192H305.92v-46.72h40.96v-67.84H176.64v67.84h40.96V192H108.52352c-59.38176 0-107.52 48.13824-107.52 107.52v439.04c0 59.38176 48.13824 107.52 107.52 107.52H202.24v113.92h119.04v-113.92h379.93984v113.92h119.04v-113.92h95.88736c59.38176 0 107.52-48.13824 107.52-107.52V299.52c0-59.38176-48.14336-107.52-107.52-107.52z m35.2256 547.84a35.84 35.84 0 0 1-35.84 35.84h-806.4a35.84 35.84 0 0 1-35.84-35.84V298.24a35.84 35.84 0 0 1 35.84-35.84h806.4a35.84 35.84 0 0 1 35.84 35.84v441.6z" fill="#3366CC" p-id="19900"></path></svg>