<svg width="1655" height="771" xmlns="http://www.w3.org/2000/svg" xmlns:xlink="http://www.w3.org/1999/xlink" overflow="hidden"><g transform="translate(393 46)"><rect x="-392" y="334" width="1635" height="389" fill="#E68518" fill-opacity="0.2"/><rect x="-154" y="26" width="186" height="68" stroke="#7F7F7F" stroke-width="2" stroke-linejoin="round" stroke-miterlimit="10" fill="#FFFFFF"/><text font-family="Meiryo,Meiryo_MSFontService,sans-serif" font-weight="400" font-size="24" transform="translate(-123.283 51)">Embedded</text><text font-family="Meiryo,Meiryo_MSFontService,sans-serif" font-weight="400" font-size="24" transform="translate(-95.6167 80)">Coder</text><path d="M-364 60C-364 33.4903-325.496 12-278 12-230.504 12-192 33.4903-192 60-192 86.5097-230.504 108-278 108-325.496 108-364 86.5097-364 60Z" stroke="#7F7F7F" stroke-width="2" stroke-linejoin="round" stroke-miterlimit="10" fill="#FFFFFF" fill-rule="evenodd"/><text font-family="Meiryo,Meiryo_MSFontService,sans-serif" font-weight="400" font-size="24" transform="translate(-327.881 51)">Simulink</text><text font-family="Meiryo,Meiryo_MSFontService,sans-serif" font-weight="400" font-size="24" transform="translate(-312.627 81)">Model</text><rect x="-381" y="167" width="1624" height="149" stroke="#7F7F7F" stroke-width="2" stroke-linejoin="round" stroke-miterlimit="10" fill="none"/><rect x="-385" y="149" width="89" height="38" stroke="#7F7F7F" stroke-width="2" stroke-linejoin="round" stroke-miterlimit="10" fill="#FFFFFF"/><text font-family="Meiryo,Meiryo_MSFontService,sans-serif" font-weight="400" font-size="24" transform="translate(-366.108 173)">MBP</text><path d="M-329.5 220.334C-329.5 214.35-324.65 209.5-318.666 209.5L-81.3336 209.5C-75.3504 209.5-70.5001 214.35-70.5001 220.334L-70.5001 263.666C-70.5001 269.65-75.3504 274.5-81.3336 274.5L-318.666 274.5C-324.65 274.5-329.5 269.65-329.5 263.666Z" stroke="#7F7F7F" stroke-width="2.66667" stroke-linejoin="round" stroke-miterlimit="10" fill="#FFFFFF" fill-rule="evenodd"/><text font-family="Meiryo,Meiryo_MSFontService,sans-serif" font-weight="400" font-size="24" transform="translate(-314.369 233)">Adding Information</text><text font-family="Meiryo,Meiryo_MSFontService,sans-serif" font-weight="400" font-size="24" transform="translate(-235.116 262)">Phase</text><path d="M301.5 220.334C301.5 214.35 306.35 209.5 312.334 209.5L548.667 209.5C554.65 209.5 559.5 214.35 559.5 220.334L559.5 263.667C559.5 269.65 554.65 274.5 548.667 274.5L312.334 274.5C306.35 274.5 301.5 269.65 301.5 263.667Z" stroke="#E68518" stroke-width="2.66667" stroke-linejoin="round" stroke-miterlimit="10" stroke-dasharray="10.6667 8" fill="#FFFFFF" fill-rule="evenodd"/><text font-family="Meiryo,Meiryo_MSFontService,sans-serif" font-weight="400" font-size="24" transform="translate(342.311 233)">Core Allocation</text><text font-family="Meiryo,Meiryo_MSFontService,sans-serif" font-weight="400" font-size="24" transform="translate(395.811 263)">Phase</text><path d="M966 570 1190.67 570 1203 582.334 1203 644 966 644Z" stroke="#E68518" stroke-width="2" stroke-linejoin="round" stroke-miterlimit="10" stroke-dasharray="8 6" fill="#FFFFFF" fill-rule="evenodd"/><text font-family="Meiryo,Meiryo_MSFontService,sans-serif" font-weight="400" font-size="24" transform="translate(1016.15 601)">Parallelized</text><text font-family="Meiryo,Meiryo_MSFontService,sans-serif" font-weight="400" font-size="24" transform="translate(1041.63 630)">C code</text><path d="M94 40 197.333 40 204 46.6668 204 80 94 80Z" stroke="#7F7F7F" stroke-width="2" stroke-linejoin="round" stroke-miterlimit="10" fill="#FFFFFF" fill-rule="evenodd"/><text font-family="Meiryo,Meiryo_MSFontService,sans-serif" font-weight="400" font-size="24" transform="translate(103.696 66)">C Code</text><path d="M-24 205 253.666 205 266 217.334 266 279-24 279Z" stroke="#7F7F7F" stroke-width="2" stroke-linejoin="round" stroke-miterlimit="10" fill="#FFFFFF" fill-rule="evenodd"/><text font-family="Meiryo,Meiryo_MSFontService,sans-serif" font-weight="400" font-size="24" transform="translate(-13.3633 236)">Code</text><text font-family="Meiryo,Meiryo_MSFontService,sans-serif" font-weight="400" font-size="24" transform="translate(53.8034 236)">And Cycle</text><text font-family="Meiryo,Meiryo_MSFontService,sans-serif" font-weight="400" font-size="24" transform="translate(169.45 236)">-</text><text font-family="Meiryo,Meiryo_MSFontService,sans-serif" font-weight="400" font-size="24" transform="translate(179.95 236)">Count</text><text font-family="Meiryo,Meiryo_MSFontService,sans-serif" font-weight="400" font-size="24" transform="translate(13.8767 265)">Annotated BLXML</text><path d="M619 205 896.666 205 909 217.334 909 279 619 279Z" stroke="#E68518" stroke-width="2" stroke-linejoin="round" stroke-miterlimit="10" stroke-dasharray="8 6" fill="#FFFFFF" fill-rule="evenodd"/><text font-family="Meiryo,Meiryo_MSFontService,sans-serif" font-weight="400" font-size="24" transform="translate(696.136 236)">Parallelized</text><text font-family="Meiryo,Meiryo_MSFontService,sans-serif" font-weight="400" font-size="24" transform="translate(721.869 265)">BLXML</text><path d="M-371 619-166.334 619-154 631.334-154 693-371 693Z" stroke="#E68518" stroke-width="2" stroke-linejoin="round" stroke-miterlimit="10" fill="#FFFFFF" fill-rule="evenodd"/><text font-family="Meiryo,Meiryo_MSFontService,sans-serif" font-weight="400" font-size="24" transform="translate(-346.989 650)">Division SHIM</text><text font-family="Meiryo,Meiryo_MSFontService,sans-serif" font-weight="400" font-size="24" transform="translate(-290.656 679)">XML</text><path d="M293 372 549.5 372 567 389.5 567 477 293 477Z" stroke="#E68518" stroke-width="2" stroke-linejoin="round" stroke-miterlimit="10" fill="#FFFFFF" fill-rule="evenodd"/><text font-family="Meiryo,Meiryo_MSFontService,sans-serif" font-weight="400" font-size="24" transform="translate(334.41 405)">Communication</text><text font-family="Meiryo,Meiryo_MSFontService,sans-serif" font-weight="400" font-size="24" transform="translate(369.583 434)">Overhead</text><text font-family="Meiryo,Meiryo_MSFontService,sans-serif" font-weight="400" font-size="24" transform="translate(338.99 463)">Description file</text><text font-family="Meiryo,Meiryo_MSFontService,sans-serif" font-weight="400" font-size="24" transform="translate(958.482 701)">Proposed Framework</text><rect x="-381" y="390" width="236" height="311" stroke="#E68518" stroke-width="2" stroke-linejoin="round" stroke-miterlimit="10" fill="none"/><rect x="-387" y="369" width="130" height="39" stroke="#E68518" stroke-width="2" stroke-linejoin="round" stroke-miterlimit="10" fill="#FFFFFF"/><text font-family="Meiryo,Meiryo_MSFontService,sans-serif" font-weight="400" font-size="24" transform="translate(-376.312 394)">SHIM</text><text font-family="Meiryo,Meiryo_MSFontService,sans-serif" font-weight="400" font-size="24" transform="translate(-305.479 394)">2.0</text><path d="M-371 425-166.334 425-154 437.334-154 499-371 499Z" stroke="#E68518" stroke-width="2" stroke-linejoin="round" stroke-miterlimit="10" stroke-dasharray="8 6" fill="#FFFFFF" fill-rule="evenodd"/><text font-family="Meiryo,Meiryo_MSFontService,sans-serif" font-weight="400" font-size="24" transform="translate(-296.555 456)">SHIM</text><text font-family="Meiryo,Meiryo_MSFontService,sans-serif" font-weight="400" font-size="24" transform="translate(-289.888 485)">XML</text><path d="M281.5 586.334C281.5 580.35 286.35 575.5 292.334 575.5L569.667 575.5C575.65 575.5 580.5 580.35 580.5 586.334L580.5 629.667C580.5 635.65 575.65 640.5 569.667 640.5L292.334 640.5C286.35 640.5 281.5 635.65 281.5 629.667Z" stroke="#E68518" stroke-width="2.66667" stroke-linejoin="round" stroke-miterlimit="10" fill="#FFFFFF" fill-rule="evenodd"/><text font-family="Meiryo,Meiryo_MSFontService,sans-serif" font-weight="400" font-size="24" transform="translate(342.231 599)">File</text><text font-family="Meiryo,Meiryo_MSFontService,sans-serif" font-weight="400" font-size="24" transform="translate(390.231 599)">Genaration</text><text font-family="Meiryo,Meiryo_MSFontService,sans-serif" font-weight="400" font-size="24" transform="translate(395.811 628)">Phase</text><path d="M957.5 220.334C957.5 214.35 962.35 209.5 968.334 209.5L1204.67 209.5C1210.65 209.5 1215.5 214.35 1215.5 220.334L1215.5 263.667C1215.5 269.65 1210.65 274.5 1204.67 274.5L968.334 274.5C962.35 274.5 957.5 269.65 957.5 263.667Z" stroke="#7F7F7F" stroke-width="2.66667" stroke-linejoin="round" stroke-miterlimit="10" fill="#FFFFFF" fill-rule="evenodd"/><text font-family="Meiryo,Meiryo_MSFontService,sans-serif" font-weight="400" font-size="24" transform="translate(988.453 233)">Code Generation</text><text font-family="Meiryo,Meiryo_MSFontService,sans-serif" font-weight="400" font-size="24" transform="translate(1051.53 262)">Phase</text><rect x="-381" y="-25" width="608" height="150" stroke="#7F7F7F" stroke-width="2" stroke-linejoin="round" stroke-miterlimit="10" fill="none"/><rect x="-386" y="-42" width="237" height="38" stroke="#7F7F7F" stroke-width="2" stroke-linejoin="round" stroke-miterlimit="10" fill="#FFFFFF"/><text font-family="Meiryo,Meiryo_MSFontService,sans-serif" font-weight="400" font-size="24" transform="translate(-370.663 -18)">MATLAB/Simulink</text><path d="M-115.5 387.5 166.666 387.5 218.5 439.334 218.5 698.5-115.5 698.5Z" stroke="#E68518" stroke-width="3" stroke-linejoin="round" stroke-miterlimit="10" fill="#FFFFFF" fill-rule="evenodd"/><rect x="-83" y="369" width="215" height="39" stroke="#E68518" stroke-width="2" stroke-linejoin="round" stroke-miterlimit="10" fill="#FFFFFF"/><text font-family="Meiryo,Meiryo_MSFontService,sans-serif" font-weight="400" font-size="24" transform="translate(-65.3069 394)">Proposed SHIM</text><path d="M-106 452 191.666 452 204 464.334 204 526-106 526Z" stroke="#E68518" stroke-width="2" stroke-linejoin="round" stroke-miterlimit="10" fill="#FFFFFF" fill-rule="evenodd"/><text font-family="Meiryo,Meiryo_MSFontService,sans-serif" font-weight="400" font-size="24" transform="translate(-35.2062 483)">Combinatorial</text><text font-family="Meiryo,Meiryo_MSFontService,sans-serif" font-weight="400" font-size="24" transform="translate(-94.3929 512)">Representation</text><text font-family="Meiryo,Meiryo_MSFontService,sans-serif" font-weight="400" font-size="24" transform="translate(90.1471 512)">of</text><text font-family="Meiryo,Meiryo_MSFontService,sans-serif" font-weight="400" font-size="24" transform="translate(120.647 512)">Cores</text><path d="M-106 548 186.333 548 204 565.667 204 654-106 654Z" stroke="#E68518" stroke-width="2" stroke-linejoin="round" stroke-miterlimit="10" fill="#FFFFFF" fill-rule="evenodd"/><text font-family="Meiryo,Meiryo_MSFontService,sans-serif" font-weight="400" font-size="24" transform="translate(-87.8802 582)">Message Size Consider</text><text font-family="Meiryo,Meiryo_MSFontService,sans-serif" font-weight="400" font-size="24" transform="translate(-29.5735 611)">Overhead by</text><text font-family="Meiryo,Meiryo_MSFontService,sans-serif" font-weight="400" font-size="24" transform="translate(-58.3735 640)">Multiple Formulas</text><path d="M1015 10 1205 10.0001 1205 14.0001 1015 14ZM1203 6.0001 1215 12.0001 1203 18.0001Z"/><text font-family="Meiryo,Meiryo_MSFontService,sans-serif" font-weight="400" font-size="24" transform="translate(1024.77 -5)">Input data</text><path d="M1015 61 1031 61 1031 65 1015 65ZM1043 61 1059 61 1059 65 1043 65ZM1071 61 1087 61 1087 65 1071 65ZM1099 61 1115 61.0001 1115 65.0001 1099 65ZM1127 61.0001 1143 61.0001 1143 65.0001 1127 65.0001ZM1155 61.0001 1171 61.0001 1171 65.0001 1155 65.0001ZM1183 61.0001 1199 61.0001 1199 65.0001 1183 65.0001ZM1203 57.0001 1215 63.0001 1203 69.0001Z"/><text font-family="Meiryo,Meiryo_MSFontService,sans-serif" font-weight="400" font-size="24" transform="translate(1024.77 47)">Output data</text><path d="M-191.988 58-164.299 58.1686-164.324 62.1685-192.012 62ZM-166.275 54.1565-154.312 60.2294-166.348 66.1562Z"/><path d="M0.0073738-1.99999 16.0073-1.941 15.9925 2.05898-0.0073738 1.99999ZM28.0072-1.89675 44.0071-1.83776 43.9923 2.16221 27.9924 2.10322ZM50.2696-5.8147 62.2473 0.229501 50.2253 6.18522Z" transform="matrix(1 0 0 -1 32 60.2295)"/><path d="M-276.413 106.783-204.987 199.919-208.161 202.353-279.587 109.217ZM-203.03 195.897-200.489 209.071-212.552 203.2Z"/><path d="M0.691556-1.87663 341.17 123.593 339.787 127.346-0.691556 1.87663ZM340.677 119.148 349.862 128.927 336.528 130.408Z" transform="matrix(-1 0 0 1 148.862 80)"/><path d="M266 240 291.192 240 291.192 244 266 244ZM289.192 236 301.192 242 289.192 248Z"/><path d="M909 240 946.588 240 946.588 244 909 244ZM944.588 236 956.588 242 944.588 248Z"/><path d="M2-2.15102e-06 2.00009 87.6161-1.99991 87.6161-2 2.15102e-06ZM6.00009 85.6161 0.000104987 97.6161-5.99991 85.6161Z" transform="matrix(1 0 0 -1 430 371.616)"/><path d="M-71 240-55 240-55 244-71 244ZM-43 240-33.4119 240-33.4119 244-43 244ZM-35.4118 236-23.4119 242-35.4119 248Z"/><path d="M559 240 575 240 575 244 559 244ZM587 240 603 240 603 244 587 244ZM606.984 236 618.984 242 606.984 248Z"/><path d="M1.99997-0.011145 2.08913 15.9886-1.91081 16.0109-1.99997 0.011145ZM2.156 27.9884 2.24516 43.9882-1.75478 44.0105-1.84394 28.0107ZM2.31203 55.988 2.40119 71.9877-1.59875 72.01-1.68791 56.0103ZM2.46806 83.9876 2.55722 99.9873-1.44272 100.01-1.53188 84.0098ZM2.62409 111.987 2.71325 127.987-1.28669 128.009-1.37585 112.009ZM2.78012 139.987 2.86928 155.986-1.13066 156.009-1.21982 140.009ZM2.93615 167.986 3.02531 183.986-0.97463 184.008-1.06379 168.009ZM3.09218 195.986 3.18134 211.986-0.8186 212.008-0.90776 196.008ZM3.24821 223.985 3.33737 239.985-0.66257 240.007-0.75173 224.008ZM3.40424 251.985 3.4934 267.985-0.50654 268.007-0.5957 252.007ZM3.56027 279.984 3.5939 286.02-0.406035 286.043-0.43967 280.007ZM7.5827 283.998 1.64966 296.031-4.41712 284.065Z" transform="matrix(-1 0 0 1 1085.65 274)"/><path d="M0.00324039-2 376.139-1.39058 376.133 2.60941-0.00324039 2ZM374.146-5.39382 386.136 0.625617 374.127 6.60617Z" transform="matrix(-1 0 0 1 966.136 607)"/><path d="M249 605 274.04 605 274.04 609 249 609ZM272.04 601 284.04 607 272.04 613Z"/><path d="M2-2.14468e-06 2.00002 16-1.99998 16-2 2.14468e-06ZM2.00003 28 2.00005 44-1.99995 44-1.99997 28ZM2.00006 56 2.00008 72-1.99992 72-1.99994 56ZM2.00009 84 2.00009 87.9047-1.99991 87.9047-1.99991 84ZM6.00009 85.9047 0.000104987 97.9047-5.99991 85.9047Z" transform="matrix(1 0 0 -1 430 574.905)"/><path d="M706.5-17.3331C706.5-21.2913 709.709-24.5001 713.667-24.5001L957.333-24.5001C961.291-24.5001 964.5-21.2913 964.5-17.3331L964.5 11.3331C964.5 15.2913 961.291 18.5001 957.333 18.5001L713.667 18.5001C709.709 18.5001 706.5 15.2913 706.5 11.3331Z" stroke="#7F7F7F" stroke-width="2.66667" stroke-linejoin="round" stroke-miterlimit="10" fill="#FFFFFF" fill-rule="evenodd"/><text font-family="Meiryo,Meiryo_MSFontService,sans-serif" font-weight="400" font-size="24" transform="translate(773.343 3)">Processing</text><path d="M706 34 957 34 964 41.0002 964 76 706 76Z" stroke="#7F7F7F" stroke-width="2" stroke-linejoin="round" stroke-miterlimit="10" fill="#FFFFFF" fill-rule="evenodd"/><text font-family="Meiryo,Meiryo_MSFontService,sans-serif" font-weight="400" font-size="24" transform="translate(813.659 62)">File</text><rect x="706" y="93" width="258" height="39" stroke="#7F7F7F" stroke-width="2" stroke-linejoin="round" stroke-miterlimit="10" fill="#FFFFFF"/><text font-family="Meiryo,Meiryo_MSFontService,sans-serif" font-weight="400" font-size="24" transform="translate(811.542 118)">Tool</text><path d="M418.5-13.4999C418.5-17.366 421.634-20.5001 425.5-20.5001L670.5-20.5001C674.366-20.5001 677.5-17.366 677.5-13.4999L677.5 14.4999C677.5 18.366 674.366 21.5 670.5 21.5L425.5 21.5C421.634 21.5 418.5 18.366 418.5 14.4999Z" stroke="#E68518" stroke-width="2.66667" stroke-linejoin="round" stroke-miterlimit="10" fill="#FFFFFF" fill-rule="evenodd"/><text font-family="Meiryo,Meiryo_MSFontService,sans-serif" font-weight="400" font-size="24" transform="translate(465.787 6)">Proposed Part</text><path d="M418.5 41.5002C418.5 37.6341 421.634 34.5001 425.5 34.5001L670.5 34.5001C674.366 34.5001 677.5 37.6341 677.5 41.5002L677.5 69.4999C677.5 73.366 674.366 76.5001 670.5 76.5001L425.5 76.5001C421.634 76.5001 418.5 73.366 418.5 69.4999Z" stroke="#E68518" stroke-width="2.66667" stroke-linejoin="round" stroke-miterlimit="10" stroke-dasharray="10.6667 8" fill="#FFFFFF" fill-rule="evenodd"/><text font-family="Meiryo,Meiryo_MSFontService,sans-serif" font-weight="400" font-size="24" transform="translate(471.704 62)">Affected Part</text><text font-family="Meiryo,Meiryo_MSFontService,sans-serif" font-weight="400" font-size="24" transform="translate(252.523 519)">Message Size</text><text font-family="Meiryo,Meiryo_MSFontService,sans-serif" font-weight="400" font-size="24" transform="translate(271.549 548)">Extraction</text><text font-family="Meiryo,Meiryo_MSFontService,sans-serif" font-weight="400" font-size="24" transform="translate(713.734 645)">Message Size</text><text font-family="Meiryo,Meiryo_MSFontService,sans-serif" font-weight="400" font-size="24" transform="translate(732.76 674)">Extraction</text><path d="M605.5 440.5 605.5 375.813C605.5 348.026 628.026 325.5 655.812 325.5L977.813 325.5C1005.6 325.5 1028.12 348.026 1028.12 375.813L1028.12 383 1042.5 383 1013.75 411.75 985 383 999.375 383 999.375 375.813C999.375 363.904 989.721 354.25 977.813 354.25L655.812 354.25C643.904 354.25 634.25 363.904 634.25 375.813L634.25 440.5Z" fill="#E68518" fill-rule="evenodd"/><path d="M605.5 441C605.224 441 605 440.776 605 440.5L605 375.813 605.26 370.643 606.028 365.597 607.278 360.727 608.984 356.057 611.122 351.614 613.665 347.423 616.589 343.51 619.866 339.9 623.473 336.619 627.383 333.692 631.571 331.145 636.012 329.003 640.679 327.292 645.548 326.038 650.593 325.266 655.787 325.001 977.813 325 982.982 325.26 988.028 326.028 992.899 327.278 997.568 328.984 1002.01 331.122 1006.2 333.665 1010.12 336.589 1013.73 339.866 1017.01 343.473 1019.93 347.383 1022.48 351.571 1024.62 356.012 1026.33 360.679 1027.59 365.548 1028.36 370.593 1028.62 375.787 1028.62 383 1028.12 382.5 1042.5 382.5C1042.7 382.5 1042.88 382.622 1042.96 382.809 1043.04 382.996 1043 383.211 1042.85 383.354L1014.1 412.104C1013.91 412.299 1013.59 412.299 1013.4 412.103L984.647 383.354C984.504 383.211 984.461 382.996 984.538 382.809 984.616 382.622 984.798 382.5 985 382.5L999.375 382.5 998.875 383 998.875 375.813 998.439 371.517 998.459 371.615 997.203 367.568 997.241 367.658 995.253 363.995 995.307 364.075 992.674 360.884 992.741 360.951 989.55 358.318 989.63 358.372 985.967 356.384 986.057 356.422 982.01 355.166 982.108 355.186 977.763 354.748 655.812 354.75 651.517 355.186 651.615 355.166 647.568 356.422 647.658 356.384 643.995 358.372 644.075 358.318 640.884 360.951 640.951 360.884 638.318 364.075 638.372 363.995 636.384 367.658 636.422 367.568 635.166 371.615 635.186 371.517 634.748 375.863 634.75 440.5C634.75 440.776 634.526 441 634.25 441ZM634.25 440 633.75 440.5 633.753 375.762 634.191 371.417C634.194 371.384 634.201 371.351 634.211 371.319L635.467 367.271C635.477 367.24 635.49 367.21 635.505 367.181L637.493 363.518C637.508 363.49 637.526 363.463 637.547 363.439L640.18 360.247C640.2 360.223 640.223 360.2 640.247 360.18L643.439 357.547C643.463 357.527 643.49 357.509 643.518 357.493L647.181 355.505C647.21 355.49 647.24 355.477 647.271 355.467L651.319 354.211C651.351 354.201 651.383 354.194 651.417 354.191L655.812 353.75 977.863 353.753 982.208 354.191C982.242 354.194 982.275 354.201 982.307 354.211L986.354 355.467C986.385 355.477 986.416 355.49 986.444 355.505L990.107 357.493C990.135 357.509 990.162 357.527 990.187 357.547L993.378 360.18C993.402 360.2 993.425 360.223 993.445 360.247L996.078 363.439C996.099 363.463 996.117 363.49 996.132 363.518L998.12 367.181C998.136 367.21 998.148 367.24 998.158 367.271L999.414 371.319C999.424 371.351 999.431 371.384 999.434 371.417L999.875 375.813 999.875 383C999.875 383.276 999.651 383.5 999.375 383.5L985 383.5 985.354 382.647 1014.1 411.396 1013.4 411.396 1042.15 382.647 1042.5 383.5 1028.12 383.5C1027.85 383.5 1027.62 383.276 1027.62 383L1027.63 375.838 1027.37 370.744 1026.62 365.797 1025.39 361.023 1023.72 356.446 1021.63 352.09 1019.13 347.982 1016.27 344.145 1013.05 340.606 1009.52 337.389 1005.68 334.52 1001.58 332.023 997.225 329.923 992.65 328.246 987.877 327.017 982.932 326.259 977.813 326 655.838 325.999 650.744 326.254 645.797 327.006 641.023 328.232 636.446 329.904 632.09 332 627.982 334.493 624.145 337.359 620.606 340.573 617.389 344.109 614.52 347.942 612.023 352.048 609.923 356.401 608.246 360.976 607.016 365.748 606.259 370.694 606 375.813 606 440.5 605.5 440Z" fill="#E68518"/><path d="M1034.5 445.5 1034.5 506.25C1034.5 532.345 1013.35 553.5 987.25 553.5L652.25 553.5C626.154 553.5 605 532.345 605 506.25L605 499.5 591.5 499.5 618.5 472.5 645.5 499.5 632 499.5 632 506.25C632 517.434 641.066 526.5 652.25 526.5L987.25 526.5C998.434 526.5 1007.5 517.434 1007.5 506.25L1007.5 445.5Z" fill="#E68518" fill-rule="evenodd"/><path d="M1034.5 445C1034.78 445 1035 445.224 1035 445.5L1035 506.25 1034.76 511.106 1034.03 515.848 1032.86 520.425 1031.26 524.814 1029.25 528.989 1026.86 532.928C1026.85 532.948 1026.83 532.968 1026.82 532.986L1021.05 539.979C1021.03 540.004 1021 540.026 1020.98 540.047L1013.99 545.816C1013.97 545.831 1013.95 545.845 1013.93 545.858L1010.03 548.225 1005.86 550.237 1001.47 551.845 996.897 553.024 992.156 553.75 987.275 553.999 652.25 554 647.393 553.755 642.652 553.034 638.075 551.86 633.686 550.256 629.511 548.248 625.572 545.858C625.552 545.845 625.532 545.831 625.514 545.816L618.521 540.047C618.496 540.026 618.474 540.004 618.453 539.979L612.684 532.986C612.668 532.968 612.654 532.948 612.642 532.928L610.275 529.032 608.262 524.859 606.655 520.473 605.475 515.897 604.749 511.156 604.5 506.275 604.5 499.5 605 500 591.5 500C591.298 500 591.115 499.878 591.038 499.691 590.961 499.504 591.003 499.289 591.146 499.146L618.146 472.147C618.342 471.951 618.658 471.951 618.854 472.147L645.853 499.146C645.996 499.289 646.039 499.504 645.962 499.691 645.884 499.878 645.702 500 645.5 500L632 500 632.5 499.5 632.5 506.25 632.909 510.281 632.889 510.183 634.069 513.984 634.031 513.894 635.898 517.333 635.844 517.254 638.317 520.251 638.249 520.183 641.246 522.656 641.166 522.602 644.606 524.469 644.516 524.431 648.317 525.611 648.219 525.591 652.3 526.002 987.25 526 991.281 525.591 991.183 525.611 994.984 524.431 994.894 524.469 998.333 522.602 998.254 522.656 1001.25 520.183 1001.18 520.251 1003.66 517.254 1003.6 517.333 1005.47 513.894 1005.43 513.984 1006.61 510.183 1006.59 510.281 1007 506.2 1007 445.5C1007 445.224 1007.22 445 1007.5 445ZM1007.5 446 1008 445.5 1008 506.3 1007.59 510.381C1007.58 510.414 1007.58 510.447 1007.57 510.479L1006.39 514.28C1006.38 514.312 1006.36 514.342 1006.35 514.371L1004.48 517.81C1004.47 517.839 1004.45 517.865 1004.43 517.89L1001.95 520.887C1001.93 520.912 1001.91 520.934 1001.89 520.955L998.89 523.427C998.865 523.448 998.839 523.466 998.81 523.481L995.371 525.348C995.342 525.364 995.312 525.376 995.28 525.386L991.479 526.566C991.447 526.576 991.415 526.583 991.381 526.586L987.25 527 652.2 526.997 648.119 526.586C648.085 526.583 648.052 526.576 648.02 526.566L644.219 525.386C644.188 525.376 644.158 525.364 644.129 525.348L640.689 523.481C640.661 523.466 640.634 523.448 640.61 523.427L637.613 520.955C637.588 520.934 637.566 520.912 637.545 520.887L635.073 517.89C635.052 517.865 635.034 517.839 635.019 517.81L633.152 514.371C633.136 514.342 633.123 514.312 633.114 514.28L631.934 510.479C631.924 510.447 631.917 510.414 631.914 510.381L631.5 506.25 631.5 499.5C631.5 499.224 631.724 499 632 499L645.5 499 645.146 499.853 618.146 472.854 618.854 472.854 591.854 499.853 591.5 499 605 499C605.276 499 605.5 499.224 605.5 499.5L605.499 506.225 605.738 511.006 606.444 515.648 607.594 520.129 609.163 524.425 611.13 528.513 613.497 532.408 613.455 532.35 619.225 539.343 619.157 539.275 626.15 545.045 626.091 545.003 629.945 547.347 634.03 549.317 638.324 550.892 642.803 552.046 647.444 552.757 652.25 553 987.225 553.001 992.006 552.762 996.648 552.056 1001.13 550.906 1005.42 549.336 1009.51 547.37 1013.41 545.003 1013.35 545.045 1020.34 539.275 1020.28 539.343 1026.04 532.35 1026 532.408 1028.35 528.555 1030.32 524.47 1031.89 520.176 1033.05 515.697 1033.76 511.056 1034 506.25 1034 445.5 1034.5 446Z" fill="#E68518"/><text font-family="Meiryo,Meiryo_MSFontService,sans-serif" font-weight="400" font-size="27" transform="translate(656.583 438)">Repeat</text><text font-family="Meiryo,Meiryo_MSFontService,sans-serif" font-weight="400" font-size="27" transform="translate(755.743 438)">U</text><text font-family="Meiryo,Meiryo_MSFontService,sans-serif" font-weight="400" font-size="27" transform="translate(775.243 438)">ntil</text><text font-family="Meiryo,Meiryo_MSFontService,sans-serif" font-weight="400" font-size="27" transform="translate(824.577 438)">A</text><text font-family="Meiryo,Meiryo_MSFontService,sans-serif" font-weight="400" font-size="27" transform="translate(842.577 438)">ssignments</text><text font-family="Meiryo,Meiryo_MSFontService,sans-serif" font-weight="400" font-size="27" transform="translate(660.577 470)">S</text><text font-family="Meiryo,Meiryo_MSFontService,sans-serif" font-weight="400" font-size="27" transform="translate(677.577 470)">top</text><text font-family="Meiryo,Meiryo_MSFontService,sans-serif" font-weight="400" font-size="27" transform="translate(728.743 470)">C</text><text font-family="Meiryo,Meiryo_MSFontService,sans-serif" font-weight="400" font-size="27" transform="translate(746.743 470)">hanging</text><text font-family="Meiryo,Meiryo_MSFontService,sans-serif" font-weight="400" font-size="27" transform="translate(859.91 470)">Allocation</text><path d="M0 0 67.5389 0 67.5389 127.496 330.637 127.496" stroke="#000000" stroke-width="4" stroke-linejoin="round" stroke-miterlimit="10" fill="none" fill-rule="evenodd" transform="matrix(1.83697e-16 1 1 -1.83697e-16 121 279)"/><path d="M-264 424.428-264 412.325C-264 411.22-263.105 410.325-262 410.325L-200.481 410.325-202.481 412.325-202.481 284-198.481 284-198.481 412.325C-198.481 413.429-199.377 414.325-200.481 414.325L-262 414.325-260 412.325-260 424.428ZM-206.481 286-200.481 274-194.481 286Z"/><path d="M-143 541-126.76 541-126.76 545-143 545ZM-128.76 537-116.76 543-128.76 549Z"/><path d="M218 543 248.852 543" stroke="#000000" stroke-width="4" stroke-linejoin="round" stroke-miterlimit="10" fill="none" fill-rule="evenodd"/><path d="M-371 510-162 510-155 517-155 552-371 552Z" stroke="#E68518" stroke-width="2" stroke-linejoin="round" stroke-miterlimit="10" stroke-dasharray="8 6" fill="#FFFFFF" fill-rule="evenodd"/><path d="M-340.65 512.299-188.983 512.299-188.983 546.299-340.65 546.299Z" fill="#FFFFFF" fill-rule="evenodd"/><text font-family="Arial,Arial_MSFontService,sans-serif" font-weight="400" font-size="23" transform="translate(-340.65 538)">ComponentSet</text><path d="M-373 566-160.833 566-154 572.833-154 607-373 607Z" stroke="#E68518" stroke-width="2" stroke-linejoin="round" stroke-miterlimit="10" stroke-dasharray="8 6" fill="#FFFFFF" fill-rule="evenodd"/><path d="M-361.16 568.797-169.327 568.797-169.327 602.797-361.16 602.797Z" fill="#FFFFFF" fill-rule="evenodd"/><text font-family="Arial,Arial_MSFontService,sans-serif" font-weight="400" font-size="23" transform="translate(-361.16 595)">CommunicationSet</text></g></svg>